<svg width="116" height="116" viewBox="0 0 116 116" fill="none" xmlns="http://www.w3.org/2000/svg">
<path d="M57.4747 11.668C31.7009 11.668 10.7314 32.6386 10.7314 58.4146C10.7515 61.0967 10.9971 63.7724 11.4655 66.4134C11.4655 66.4293 11.4938 66.4225 11.4995 66.436C11.5867 66.7609 11.7778 67.0482 12.0438 67.254C12.3098 67.4598 12.6359 67.5728 12.9721 67.5757C13.3854 67.5754 13.7815 67.411 14.0736 67.1187C14.3657 66.8264 14.5298 66.4301 14.5298 66.0169C14.5224 65.9665 14.5122 65.9166 14.4992 65.8674L14.5264 65.8549C14.0881 63.3995 13.8607 60.9111 13.8467 58.4169C13.8467 34.322 33.3798 14.7889 57.4736 14.7889C81.5673 14.7889 101.103 34.3242 101.103 58.4169C101.103 82.5095 81.5696 102.044 57.4747 102.044C41.3729 102.044 27.3419 93.2962 19.7871 80.3175C19.7871 80.3096 19.777 80.3051 19.7747 80.2971C19.7543 80.2632 19.7316 80.2303 19.7124 80.1963C19.5835 79.9464 19.3887 79.7365 19.1491 79.5894C18.9095 79.4422 18.6342 79.3634 18.353 79.3614C17.94 79.3617 17.544 79.5259 17.2519 79.818C16.9599 80.11 16.7957 80.506 16.7954 80.9191C16.8026 81.2401 16.9112 81.5506 17.1058 81.8061L17.0797 81.8219C25.1827 95.7555 40.2355 105.158 57.477 105.158C83.2496 105.158 104.219 84.1906 104.219 58.4146C104.219 32.6386 83.2496 11.668 57.4747 11.668Z" fill="#F93535"/>
<path d="M58.0007 65.0451C70.1049 65.0451 79.955 74.897 79.955 87H84C84 72.6649 72.3369 61 58.0007 61C43.6645 61 32 72.6649 32 87H36.045C36.045 74.894 45.8892 65.0451 58.0007 65.0451Z" fill="#F93535"/>
<path d="M32 87C32 87.5304 32.2107 88.0391 32.5858 88.4142C32.9609 88.7893 33.4696 89 34 89C34.5304 89 35.0391 88.7893 35.4142 88.4142C35.7893 88.0391 36 87.5304 36 87C36 86.4696 35.7893 85.9609 35.4142 85.5858C35.0391 85.2107 34.5304 85 34 85C33.4696 85 32.9609 85.2107 32.5858 85.5858C32.2107 85.9609 32 86.4696 32 87Z" fill="#F93535"/>
<path d="M80 87C80 87.5304 80.2107 88.0391 80.5858 88.4142C80.9609 88.7893 81.4696 89 82 89C82.5304 89 83.0391 88.7893 83.4142 88.4142C83.7893 88.0391 84 87.5304 84 87C84 86.4696 83.7893 85.9609 83.4142 85.5858C83.0391 85.2107 82.5304 85 82 85C81.4696 85 80.9609 85.2107 80.5858 85.5858C80.2107 85.9609 80 86.4696 80 87Z" fill="#F93535"/>
<path d="M49.6863 58.4601C52.6869 61.367 56.7565 63 61 63C65.2435 63 69.3131 61.367 72.3137 58.4601C75.3143 55.5533 77 51.6109 77 47.5C77 43.3891 75.3143 39.4467 72.3137 36.5398C70.828 35.1005 69.0641 33.9588 67.1229 33.1799C65.1817 32.4009 63.1012 32 61 32C56.7565 32 52.6869 33.633 49.6863 36.5398C48.2006 37.9792 47.022 39.6879 46.2179 41.5684C45.4139 43.449 45 45.4645 45 47.5C45 51.6109 46.6857 55.5533 49.6863 58.4601Z" fill="#FF8484"/>
<path d="M57.9993 65C46.9717 65 38 56.2529 38 45.5C38 34.7471 46.9717 26 57.9993 26C69.0268 26 78 34.7485 78 45.5C78 56.2515 69.0283 65 57.9993 65ZM57.9993 29.9358C54.8416 29.9358 51.7548 30.8487 49.1292 32.5592C46.5037 34.2696 44.4574 36.7007 43.249 39.545C42.0407 42.3894 41.7246 45.5192 42.3408 48.5387C42.9569 51.5581 44.4776 54.3317 46.7106 56.5085C48.9435 58.6854 51.7884 60.1677 54.8855 60.7682C57.9825 61.3686 61.1927 61.0602 64.11 59.8818C67.0272 58.7035 69.5206 56.7082 71.2747 54.1482C73.0288 51.5883 73.9649 48.5787 73.9646 45.5C73.9596 41.3734 72.2759 37.4172 69.2828 34.4994C66.2898 31.5815 62.2319 29.9403 57.9993 29.9358Z" fill="#F93535"/>
</svg>
