<svg width="106" height="54" viewBox="0 0 106 54" fill="none" xmlns="http://www.w3.org/2000/svg">
<g clip-path="url(#clip0_4378_4448)">
<path d="M82.0645 25.3125L79.0726 28.2656L79.9274 29.1094L85.4839 27.4219C88.1909 26.8594 93.6903 25.7344 94.0322 25.7344C94.3742 25.7344 98.4489 24.3281 100.444 23.625L102.153 19.8281L102.581 14.3438V10.9688L102.153 8.01562L101.298 5.48438L100.444 3.79688H100.016H99.1613L98.3064 4.64062L96.5968 6.75C96.3118 7.73438 95.7419 9.7875 95.7419 10.125C95.7419 10.5469 94.0322 15.1875 93.1774 16.0312C92.4935 16.7063 90.043 18.8438 88.9032 19.8281L83.7742 23.625L82.0645 25.3125Z" fill="#E23730"/>
<path d="M102.776 13.3465C103.055 13.1364 103.336 12.9273 103.614 12.7144C103.838 12.5431 104.064 12.3718 104.329 12.2668C104.718 12.1135 105.054 12.2006 105.319 12.5242C105.661 12.9415 105.777 13.4459 105.863 13.9578C106.045 15.0527 106.008 16.1542 105.959 17.2556C105.895 18.7224 105.748 20.1787 105.349 21.6001C104.834 23.4273 104.022 25.0928 102.555 26.3694C101.257 27.4992 99.7214 28.1976 98.0596 28.6357C96.2606 29.1108 94.4204 29.2016 92.5687 29.2016C91.1561 29.2016 89.7599 29.0019 88.356 28.9092C86.3134 28.7748 84.3361 29.1003 82.4249 29.8157C80.9127 30.3816 79.3726 30.8387 77.7673 31.0601C77.1881 31.1405 76.6079 31.15 76.0201 31.098C74.9422 31.0005 74.3343 30.1365 74.2854 29.2158C74.2144 27.8579 74.3055 26.5056 74.3746 25.1515C74.435 23.9582 74.5174 22.764 74.527 21.5707C74.5443 19.5229 75.3671 17.8367 76.7633 16.3728C77.9064 15.1748 79.2211 14.1811 80.5521 13.2046C82.4403 11.8183 84.3399 10.4443 86.0823 8.87625C87.4038 7.68771 88.5871 6.38467 89.4252 4.81004C90.0514 3.63286 90.5434 2.39701 91.0535 1.16872C91.1609 0.910386 91.2606 0.64921 91.4218 0.416423C91.7018 0.0133034 92.0623 -0.0964661 92.5217 0.0918454C92.9628 0.272587 93.2879 0.600949 93.588 0.952022C94.3139 1.79895 94.8462 2.76701 95.363 3.74358C95.9269 4.8091 96.4534 5.89165 96.8436 7.03382C96.8225 7.11237 96.8542 7.18239 96.8772 7.2562C97.2972 8.6217 97.5686 10.0042 97.4602 11.4454C97.3845 12.4447 97.1534 13.3976 96.7199 14.3004C95.8924 16.0245 94.6716 17.443 93.169 18.624C91.3796 20.0302 89.4147 21.161 87.3155 22.0439C85.3046 22.8908 83.5124 24.0292 82.0231 25.6142C81.2886 26.3958 80.6461 27.2579 79.8808 28.014C79.7399 28.1531 79.5605 28.2742 79.4867 28.4739C79.4637 28.4862 79.4119 28.4824 79.434 28.5203C79.4512 28.5506 79.4867 28.5212 79.5068 28.4966C80.1273 28.2421 80.6892 27.8815 81.2655 27.5475C82.2504 26.9759 83.1163 26.2293 84.1194 25.6852C85.4581 24.9594 86.8581 24.3869 88.3665 24.1191C89.9747 23.8342 91.5886 23.5939 93.1642 23.1472C95.434 22.5047 97.5955 21.653 99.427 20.1305C100.353 19.3602 101.15 18.482 101.722 17.4193C102.407 16.1447 102.67 14.765 102.776 13.3465Z" fill="#9E2126"/>
<path d="M78.6867 29.1078L78.5908 28.9971C78.5821 28.9877 78.5745 28.9782 78.5668 28.9678L78.4949 28.8788L78.5351 28.7719C78.6109 28.5685 78.7586 28.436 78.889 28.3186C78.9226 28.2884 78.9571 28.2581 78.9878 28.2268C79.4318 27.7887 79.8441 27.3042 80.243 26.8358C80.5461 26.48 80.8596 26.1119 81.1866 25.7637C82.6509 24.2051 84.4547 22.9882 86.7006 22.0428C88.8908 21.1212 90.9008 19.9468 92.6748 18.552C94.2667 17.301 95.4769 15.8286 96.2699 14.1754C96.6899 13.301 96.9325 12.3632 97.0131 11.3091C97.109 10.0411 96.921 8.69543 96.4224 7.07255L96.4128 7.04226C96.3878 6.96561 96.3533 6.86058 96.3859 6.73472L96.3974 6.6893L96.4281 6.65429C97.0265 5.96823 97.5923 5.23296 98.1389 4.5223L98.3959 4.18826C98.5493 3.9867 98.7085 3.77851 98.9099 3.59966C99.4114 3.15396 99.9465 3.14734 100.459 3.58074C100.922 3.9725 101.175 4.49485 101.375 4.95286C101.85 6.03636 102.11 7.19178 102.361 8.30935L102.402 8.49387C102.777 10.1556 102.936 11.7236 102.887 13.2887V13.2972C102.756 15.0479 102.404 16.4039 101.779 17.5659C101.225 18.5965 100.437 19.5276 99.3692 20.4143C97.271 22.1583 94.7845 23.0099 92.8522 23.5569C91.5097 23.9373 90.1211 24.1758 88.7786 24.4076C88.4842 24.4587 88.1908 24.5089 87.8964 24.5609C86.5203 24.8051 85.1116 25.3246 83.5898 26.1497C83.047 26.444 82.5301 26.8065 82.0305 27.1575C81.5913 27.466 81.1368 27.7849 80.6592 28.0622C80.5432 28.1294 80.4281 28.1975 80.3121 28.2666C79.8393 28.5467 79.3512 28.8353 78.8248 29.0511L78.6867 29.1078ZM96.7829 6.86436C96.7868 6.8814 96.7935 6.90127 96.7992 6.9183L96.8117 6.95615C97.3257 8.62825 97.7016 9.9909 97.6009 11.3091C97.5175 12.4134 97.4662 13.423 97.0242 14.3438C96.2033 16.0518 94.5687 17.5764 92.927 18.8661C91.1242 20.2827 89.0826 21.476 86.8588 22.4119C84.6667 23.3345 81.6371 26.1562 81.6371 26.1562C81.6371 26.1562 81.2555 26.7128 80.9563 27.0648C80.6274 27.4518 80.2889 27.8493 79.9274 28.2268C80.1221 28.118 79.9112 28.0329 80.1001 27.9202C80.2162 27.8512 80.3332 27.7821 80.4502 27.7149C80.9124 27.4471 81.3592 27.1329 81.7917 26.8292C82.3009 26.4715 82.8274 26.1024 83.3913 25.7968C84.9524 24.9498 86.4023 24.4161 87.8216 24.1644C88.116 24.1124 88.4113 24.0613 88.7057 24.0111C90.0377 23.7821 91.4148 23.5446 92.7371 23.1699C94.6301 22.6333 97.0649 21.8006 99.1045 20.1058C100.131 19.2522 100.887 18.3599 101.417 17.3757C102.014 16.2657 102.351 14.9608 102.477 13.2707C102.524 11.7415 102.369 10.2076 102.002 8.57998L101.96 8.39451C101.713 7.29587 101.458 6.15938 100.998 5.10994C100.816 4.69263 100.19 3.88355 100.19 3.88355L99.1803 3.89585C99.1803 3.89585 98.8677 4.23273 98.719 4.42767L98.4611 4.7636C97.927 5.46385 97.3717 6.18398 96.7829 6.86436Z" fill="#E23730"/>
<path d="M4.43057 21.6502C4.43057 19.503 4.43536 17.3559 4.42385 15.2088C4.4229 14.9589 4.50057 14.9097 4.73264 14.9164C5.30704 14.9325 5.88241 14.9268 6.45682 14.9183C6.61888 14.9154 6.66491 14.9618 6.66395 15.1236C6.65916 19.0507 6.66587 22.9787 6.65628 26.9058C6.65436 27.6894 6.60162 28.471 6.41079 29.2403C6.14612 30.3097 5.48924 30.9522 4.38741 31.1509C3.60396 31.2919 2.82146 31.3023 2.04663 31.1197C0.923701 30.8547 0.406829 30.0589 0.192025 29.0066C0.0616079 28.3707 0.00982485 27.7282 0.0088659 27.0838C0.00311223 23.1216 0.0088659 19.1586 -0.000723559 15.1965C-0.0016825 14.9514 0.0750332 14.9107 0.297509 14.9164C0.854656 14.9315 1.4118 14.9325 1.96895 14.9164C2.19335 14.9097 2.24321 14.9798 2.24321 15.1927C2.2365 19.3034 2.23746 23.414 2.24033 27.5247C2.24033 27.9515 2.25759 28.3792 2.37171 28.7956C2.51363 29.3142 2.80995 29.5384 3.346 29.5337C3.85424 29.5299 4.15247 29.2924 4.28768 28.7852C4.41043 28.3253 4.42577 27.854 4.42769 27.3837C4.4344 25.4732 4.43057 23.5617 4.43057 21.6502Z" fill="black"/>
<path d="M12.5406 24.508C12.5406 22.5615 12.5444 20.6159 12.5377 18.6694C12.5368 18.2256 12.5118 17.7808 12.3948 17.3474C12.2731 16.8951 11.9556 16.6491 11.4742 16.6339C10.9842 16.6188 10.6342 16.8582 10.5 17.3143C10.36 17.7884 10.3513 18.2786 10.3504 18.7659C10.3465 22.8245 10.3456 26.8822 10.3542 30.9409C10.3552 31.1935 10.2957 31.2626 10.0377 31.2531C9.47293 31.2314 8.90619 31.2418 8.34041 31.2493C8.17739 31.2522 8.11218 31.2229 8.11218 31.0393C8.11794 27.0942 8.11218 23.1501 8.12081 19.205C8.12273 18.4565 8.16684 17.708 8.35288 16.9736C8.67029 15.7207 9.36073 15.1047 10.6659 14.958C11.3362 14.8823 12.0065 14.9003 12.6672 15.0565C13.5868 15.2732 14.189 15.8182 14.4614 16.72C14.6982 17.5054 14.7644 18.3136 14.7663 19.1245C14.7749 23.0781 14.7682 27.0317 14.7759 30.9844C14.7759 31.2087 14.7117 31.2569 14.4968 31.2512C13.9397 31.2361 13.3826 31.2352 12.8254 31.2512C12.6029 31.2579 12.532 31.2153 12.5329 30.974C12.5454 28.8193 12.5406 26.6636 12.5406 24.508Z" fill="black"/>
<path d="M28.6738 24.5448C28.6738 22.7894 28.6652 21.0331 28.6776 19.2778C28.6834 18.4375 28.7361 17.6009 28.9701 16.7824C29.2607 15.7623 29.9367 15.1907 30.9839 15.0185C31.6648 14.9069 32.3446 14.9144 33.0226 15.0346C34.1954 15.2418 34.8638 15.9506 35.1064 17.0833C35.2512 17.7571 35.3087 18.4375 35.3087 19.1245C35.3097 23.062 35.3068 26.9995 35.3145 30.936C35.3145 31.1688 35.2704 31.2568 35.0115 31.2464C34.4649 31.2247 33.9164 31.2256 33.3698 31.2464C33.1252 31.2559 33.0802 31.1802 33.0811 30.954C33.0897 28.6791 33.0821 26.4043 33.0926 24.1284C33.0936 23.871 33.0543 23.7651 32.758 23.7821C32.244 23.8105 31.7261 23.8048 31.2112 23.784C30.9503 23.7736 30.9024 23.8663 30.9033 24.101C30.912 26.3655 30.9024 28.6309 30.9158 30.8954C30.9177 31.1868 30.8343 31.2578 30.5524 31.2464C30.0163 31.2237 29.4784 31.2275 28.9423 31.2455C28.7122 31.253 28.669 31.1764 28.669 30.9654C28.6767 28.8249 28.6738 26.6844 28.6738 24.5448ZM30.9081 19.7396C30.9081 20.4417 30.9129 21.0539 30.9053 21.6662C30.9034 21.8327 30.9369 21.9047 31.1268 21.9009C31.7156 21.8895 32.3044 21.8924 32.8922 21.8999C33.0408 21.9018 33.0936 21.8621 33.0897 21.7097C33.0792 21.3473 33.0926 20.9839 33.085 20.6205C33.0658 19.6572 33.1454 18.6911 33.0207 17.7306C32.9651 17.2972 32.8596 16.8846 32.3744 16.7171C31.7022 16.4853 31.1393 16.8212 31.006 17.5347C30.864 18.2946 30.9206 19.0639 30.9081 19.7396Z" fill="#9E2126"/>
<path d="M65.9714 24.5052C65.9714 22.6448 65.9647 20.7853 65.9752 18.9249C65.9791 18.271 66.0548 17.6237 66.2025 16.9812C66.4662 15.8362 67.1663 15.1738 68.3448 15.0054C69.0592 14.9032 69.7679 14.9155 70.4746 15.0725C71.4796 15.2949 72.0857 15.9119 72.3407 16.8837C72.5181 17.5613 72.5939 18.2521 72.5939 18.9485C72.5968 22.9391 72.5929 26.9286 72.6016 30.9191C72.6025 31.168 72.5584 31.2579 72.2832 31.2456C71.7366 31.221 71.1881 31.2267 70.6415 31.2437C70.4152 31.2513 70.3672 31.1803 70.3682 30.9674C70.3759 28.6915 70.3672 26.4157 70.3806 24.1408C70.3826 23.8532 70.3058 23.768 70.0162 23.7822C69.5329 23.8059 69.0458 23.8134 68.5644 23.7803C68.2259 23.7566 68.1751 23.8787 68.177 24.1796C68.1895 26.4242 68.1779 28.6688 68.1923 30.9134C68.1942 31.1983 68.1127 31.256 67.8442 31.2446C67.3293 31.2229 66.8124 31.2238 66.2965 31.2446C66.0395 31.255 65.9628 31.1935 65.9647 30.9267C65.9762 28.7871 65.9714 26.6466 65.9714 24.5052ZM68.1837 19.8116C68.1837 20.4134 68.1923 21.0152 68.1789 21.6171C68.1741 21.8234 68.2144 21.9095 68.4493 21.9029C69.0065 21.8849 69.5646 21.8868 70.1208 21.9029C70.3384 21.9085 70.3787 21.8309 70.3778 21.636C70.3691 20.5771 70.3787 19.5192 70.3711 18.4603C70.3682 18.1082 70.3308 17.7562 70.2512 17.4118C70.1706 17.0654 69.9817 16.8118 69.6202 16.7049C68.9739 16.5137 68.4378 16.8222 68.3074 17.4865C68.1549 18.254 68.1847 19.0337 68.1837 19.8116Z" fill="#9E2126"/>
<path d="M41.8175 22.8207C42.9279 23.5096 43.5196 24.523 43.5628 25.7816C43.6222 27.5256 43.5743 29.2725 43.5829 31.0174C43.5839 31.2161 43.5225 31.2587 43.3345 31.254C42.8186 31.2417 42.3017 31.236 41.7868 31.2559C41.5307 31.2653 41.4512 31.201 41.4531 30.936C41.4655 29.2214 41.4588 27.5076 41.4598 25.793C41.4598 25.4362 41.4147 25.0918 41.2632 24.7624C40.9055 23.9827 40.1067 23.5767 39.2628 23.7452C39.166 23.7641 39.142 23.8039 39.1449 23.8871C39.1478 23.96 39.1449 24.0329 39.1449 24.1057C39.1449 26.392 39.1411 28.6772 39.1506 30.9635C39.1516 31.1972 39.0931 31.2644 38.8543 31.2568C38.3288 31.2379 37.8014 31.2389 37.2749 31.2568C37.0486 31.2644 36.9968 31.1963 37.0007 30.9815C37.0141 30.161 37.0064 29.3397 37.0064 28.5192C37.0064 24.1029 37.0084 19.6875 37.0016 15.2712C37.0016 15.0403 37.0419 14.9561 37.3027 14.9598C38.3451 14.9769 39.3875 14.9684 40.4299 14.9665C40.8115 14.9655 41.1865 15.0185 41.5518 15.1169C42.7937 15.4529 43.5206 16.3679 43.5628 17.7012C43.5934 18.6769 43.5906 19.6544 43.5704 20.631C43.5503 21.6463 42.902 22.4554 41.9057 22.7743C41.8673 22.7847 41.8347 22.8103 41.8175 22.8207ZM39.1449 19.3307C39.1449 19.9742 39.1449 20.6186 39.1449 21.2621C39.1449 22.0229 39.1449 22.0229 39.9293 21.9378C40.9132 21.8308 41.4262 21.3747 41.4655 20.454C41.5039 19.5635 41.4713 18.6693 41.4464 17.7779C41.4339 17.336 41.1654 17.053 40.754 16.9045C40.3129 16.7455 39.8488 16.7408 39.3865 16.719C39.1871 16.7095 39.1382 16.7758 39.1411 16.9641C39.1506 17.7523 39.1449 18.5415 39.1449 19.3307Z" fill="#9E2126"/>
<path d="M55.8122 23.1018C55.8122 25.0228 55.8151 26.9437 55.8103 28.8647C55.8093 29.3227 55.7393 29.7741 55.5667 30.2037C55.2867 30.8992 54.7181 31.1954 54.0094 31.221C53.0955 31.2541 52.1778 31.2617 51.2639 31.2248C50.4575 31.1916 49.9406 30.7034 49.6097 30.0088C49.4017 29.5716 49.2962 29.1041 49.2962 28.6225C49.2952 24.8524 49.299 21.0834 49.3067 17.3134C49.3077 16.9292 49.3796 16.5497 49.5033 16.1835C49.7958 15.3167 50.4507 14.9486 51.333 14.9382C52.1951 14.9278 53.0591 14.9192 53.9202 14.9609C55.0105 15.0139 55.5936 15.5845 55.7499 16.6566C55.8084 17.0588 55.8218 17.4629 55.8218 17.8669C55.8237 19.6119 55.8228 21.3559 55.8228 23.1009C55.8199 23.1018 55.8161 23.1018 55.8122 23.1018ZM51.4222 23.2466C51.4222 24.296 51.4193 25.3445 51.4231 26.394C51.426 27.0791 51.4174 27.7651 51.4509 28.4493C51.4845 29.1391 51.8719 29.4807 52.5662 29.494C53.2969 29.5091 53.6057 29.2357 53.691 28.4919C53.7054 28.3689 53.715 28.2439 53.715 28.12C53.716 24.8695 53.7169 21.618 53.715 18.3675C53.715 18.0136 53.6747 17.6616 53.5328 17.3323C53.3717 16.9594 53.1013 16.7267 52.6726 16.7096C52.2123 16.6907 51.8546 16.8544 51.6312 17.2679C51.4519 17.6001 51.4241 17.9597 51.4231 18.3249C51.4222 19.9639 51.4222 21.6048 51.4222 23.2466Z" fill="#9E2126"/>
<path d="M20.5747 22.8992C20.5747 21.1647 20.5747 19.4301 20.5747 17.6956C20.5747 17.2991 20.6341 16.912 20.7463 16.5307C20.9947 15.6866 21.5691 15.1898 22.4283 15.0384C23.3134 14.8823 24.2119 14.8756 25.098 15.0128C26.2852 15.1974 26.9123 15.8588 27.0744 17.0275C27.1808 17.7921 27.1223 18.5624 27.1377 19.3298C27.1406 19.4651 27.0897 19.5115 26.9545 19.5096C26.3648 19.5049 25.776 19.502 25.1862 19.5106C25.0271 19.5124 24.9916 19.4528 24.9954 19.3099C25.0031 18.9466 25.0012 18.5832 24.9973 18.2198C24.9935 17.8299 24.9101 17.4571 24.7048 17.1193C24.328 16.4985 23.5704 16.4417 23.0996 17.0001C22.8416 17.3057 22.716 17.6662 22.716 18.0627C22.7141 21.3965 22.7141 24.7312 22.715 28.065C22.715 28.4577 22.8167 28.8268 23.0516 29.1476C23.4553 29.6983 24.2273 29.6974 24.6329 29.1495C24.8899 28.8022 24.9944 28.4047 24.9983 27.9798C25.0021 27.5228 25.0069 27.0657 24.9954 26.6087C24.9906 26.4317 25.0434 26.3778 25.2246 26.3816C25.7932 26.3929 26.3609 26.3863 26.9296 26.3853C27.0399 26.3853 27.1425 26.3778 27.1387 26.5377C27.1176 27.3875 27.2096 28.2439 27.0495 29.0861C26.8011 30.3995 26.1183 31.0222 24.7691 31.1906C24.0873 31.2758 23.4026 31.272 22.7246 31.1669C21.5605 30.9872 20.8173 30.1714 20.6408 28.9082C20.5967 28.5893 20.5727 28.2694 20.5737 27.9458C20.5766 26.2652 20.5747 24.5827 20.5747 22.8992Z" fill="#9E2126"/>
<path d="M57.6155 22.9239C57.6155 21.1061 57.6145 19.2892 57.6164 17.4714C57.6164 17.1582 57.6826 16.8525 57.7699 16.5525C58.0134 15.7151 58.5754 15.1965 59.4375 15.0423C60.3322 14.8823 61.2403 14.8767 62.1379 15.0148C63.3404 15.2003 64.003 15.9251 64.1209 17.1269C64.1919 17.8518 64.1401 18.5804 64.1593 19.3062C64.1641 19.4785 64.0903 19.5125 63.934 19.5097C63.3758 19.5021 62.8177 19.4964 62.2606 19.5116C62.0487 19.5173 62.0266 19.4321 62.0237 19.2561C62.0151 18.7593 62.0746 18.2596 61.9806 17.7647C61.9317 17.5064 61.8444 17.2632 61.6958 17.0465C61.3477 16.5402 60.71 16.4693 60.2497 16.8828C59.8632 17.2301 59.7395 17.6871 59.7386 18.1773C59.7328 21.4288 59.7338 24.6793 59.7376 27.9307C59.7376 28.3064 59.8 28.6736 59.9937 29.0095C60.4146 29.7381 61.317 29.7495 61.7495 29.0284C61.9355 28.719 62.0247 28.3793 62.0276 28.0206C62.0314 27.5636 62.0362 27.1065 62.0247 26.6494C62.0199 26.4573 62.0563 26.3741 62.2798 26.3807C62.8264 26.3977 63.3739 26.3864 63.9215 26.3864C64.0346 26.3864 64.1622 26.3589 64.1574 26.5435C64.1372 27.3734 64.2322 28.2089 64.0931 29.0312C63.8639 30.3854 63.161 31.026 61.7629 31.1964C61.0917 31.2777 60.4175 31.2721 59.7501 31.167C58.5917 30.9834 57.8686 30.1914 57.6778 28.9338C57.626 28.5941 57.6059 28.2534 57.6059 27.9099C57.6059 26.2482 57.6059 24.5865 57.6059 22.9239C57.6088 22.9239 57.6117 22.9239 57.6155 22.9239Z" fill="#9E2126"/>
<path d="M16.2451 23.0932C16.2451 20.4578 16.2479 17.8215 16.2403 15.186C16.2393 14.9675 16.2968 14.9088 16.5174 14.9154C17.0563 14.9324 17.5962 14.9306 18.1351 14.9164C18.3327 14.9116 18.3845 14.9599 18.3835 15.1596C18.3749 17.0095 18.3778 18.8595 18.3778 20.7105C18.3778 24.1313 18.3749 27.5531 18.3845 30.9739C18.3854 31.2105 18.3212 31.2597 18.0949 31.2522C17.5732 31.2342 17.0515 31.2351 16.5299 31.2522C16.3055 31.2597 16.2374 31.2134 16.2384 30.9739C16.2489 28.347 16.2451 25.7201 16.2451 23.0932Z" fill="black"/>
<path d="M45.3924 23.0706C45.3924 20.4635 45.3963 17.8574 45.3867 15.2504C45.3857 14.9902 45.4567 14.9164 45.7185 14.9268C46.2334 14.9476 46.7493 14.9391 47.2652 14.9296C47.4561 14.9258 47.5366 14.9571 47.5366 15.1794C47.5289 20.455 47.5299 25.7306 47.5357 31.0061C47.5357 31.203 47.481 31.2484 47.2902 31.2437C46.7541 31.2304 46.2162 31.2257 45.6801 31.2455C45.4394 31.2541 45.3867 31.184 45.3867 30.9531C45.3953 28.3253 45.3924 25.6984 45.3924 23.0706Z" fill="#9E2126"/>
<path d="M27.2365 35.3307C27.2365 34.956 27.2548 34.5803 27.2308 34.2075C27.2116 33.916 27.3324 33.8649 27.5981 33.8592C27.8915 33.8535 27.9548 33.9643 27.949 34.2264C27.9347 34.885 27.927 35.5446 27.9519 36.2032C27.9749 36.8202 28.2722 37.1599 28.7728 37.2204C29.4527 37.3018 29.8928 36.9413 29.9082 36.2619C29.9225 35.5881 29.9254 34.9134 29.9053 34.2406C29.8967 33.9453 29.9868 33.8545 30.2889 33.8592C30.5631 33.863 30.66 33.9292 30.6523 34.2122C30.6331 34.9001 30.659 35.59 30.6418 36.2789C30.6149 37.3236 29.9504 37.9302 28.884 37.9084C27.8349 37.8876 27.2461 37.2876 27.2375 36.2297C27.2346 35.9297 27.2365 35.6297 27.2365 35.3307Z" fill="#818284"/>
<path d="M2.68387 37.9084C1.52162 37.9103 0.77844 37.3822 0.495551 36.5164C0.21458 35.6553 0.51473 34.7061 1.23298 34.1876C1.93685 33.6794 3.05306 33.6804 3.75597 34.2008C3.88063 34.2936 4.13859 34.373 3.90365 34.5983C3.74638 34.7497 3.67542 35.061 3.31773 34.7837C2.74332 34.338 2.07589 34.3778 1.61176 34.8036C1.12654 35.2493 1.01338 35.9959 1.34422 36.5779C1.75369 37.2971 2.61578 37.474 3.33307 36.9271C3.66007 36.6782 3.77802 36.8826 3.94104 37.0633C4.15681 37.3046 3.87296 37.3709 3.76268 37.4665C3.39157 37.7882 2.94086 37.9055 2.68387 37.9084Z" fill="#818284"/>
<path d="M44.6993 36.6091C44.426 36.61 44.1527 36.611 43.8784 36.6091C43.6377 36.6072 43.6387 36.7245 43.7231 36.8967C43.9321 37.3245 44.5679 37.4834 45.0272 37.1447C45.3351 36.9166 45.4923 37.085 45.6122 37.2696C45.757 37.492 45.4799 37.561 45.3552 37.6462C44.7587 38.054 43.8919 37.985 43.3731 37.508C42.8572 37.033 42.743 36.1605 43.1142 35.5171C43.4661 34.9067 44.1335 34.6455 44.8316 34.8461C45.429 35.0184 45.944 35.8057 45.8481 36.3914C45.8203 36.5608 45.7254 36.6119 45.5652 36.6091C45.2766 36.6043 44.9879 36.6081 44.6993 36.6091ZM44.3752 36.1198C44.4509 36.1198 44.5286 36.1312 44.6024 36.1179C44.7674 36.0877 45.034 36.2211 45.0771 36.0224C45.1231 35.8114 44.9582 35.5965 44.7463 35.4783C44.4509 35.3127 44.1642 35.3335 43.9053 35.5568C43.7643 35.6779 43.6205 35.8407 43.6684 36.0157C43.7269 36.2268 43.9532 36.0858 44.1028 36.117C44.1901 36.135 44.285 36.1198 44.3752 36.1198Z" fill="#818284"/>
<path d="M7.10446 36.6081C6.8465 36.6081 6.58854 36.6043 6.33154 36.61C6.23086 36.6119 6.09373 36.5627 6.04003 36.6659C5.97865 36.7832 6.07934 36.8949 6.14647 36.9895C6.40922 37.3576 6.94911 37.4267 7.4094 37.139C7.55996 37.0453 7.66352 36.9639 7.83613 37.1163C8.02409 37.2819 8.05765 37.3898 7.84572 37.5658C7.31159 38.0105 6.39771 38.0247 5.82043 37.5752C5.25561 37.1362 5.09259 36.2684 5.44452 35.5748C5.76673 34.9408 6.45621 34.6455 7.16775 34.8386C7.81312 35.0136 8.27821 35.7404 8.19382 36.4037C8.16889 36.5996 8.06724 36.6091 7.92244 36.6072C7.6501 36.6072 7.37776 36.6081 7.10446 36.6081ZM6.75156 36.1198C6.81198 36.1198 6.87431 36.1312 6.93185 36.118C7.10542 36.0773 7.3931 36.2448 7.43625 36.0082C7.48228 35.7555 7.27803 35.5341 7.02295 35.43C6.7343 35.3127 6.45429 35.359 6.23565 35.5833C6.11386 35.7082 5.96139 35.8729 6.03139 36.047C6.09373 36.2012 6.29702 36.1 6.43703 36.117C6.53964 36.1303 6.64608 36.1198 6.75156 36.1198Z" fill="#818284"/>
<path d="M62.1887 36.7605C62.1887 36.9848 62.2012 37.211 62.1839 37.4343C62.1734 37.5658 62.2875 37.7873 62.0746 37.8081C61.8819 37.827 61.6115 37.9671 61.482 37.6879C61.389 37.4873 61.3228 37.651 61.2614 37.6889C60.9354 37.8895 60.5863 37.951 60.2143 37.8677C59.7128 37.7551 59.4404 37.4267 59.4423 36.9536C59.4442 36.4577 59.7358 36.1227 60.2517 36.0205C60.5844 35.9543 60.9172 35.9761 61.2461 36.0328C61.5175 36.0792 61.4926 35.9354 61.4235 35.7802C61.3468 35.607 61.201 35.5067 61.0073 35.466C60.7158 35.4055 60.4291 35.4291 60.1577 35.5323C59.9093 35.6269 59.8556 35.5058 59.776 35.3118C59.6734 35.062 59.7904 34.9815 59.9956 34.9399C60.2469 34.8888 60.4991 34.8235 60.7542 34.8083C61.6891 34.7525 62.1744 35.2086 62.1868 36.1332C62.1916 36.3413 62.1887 36.5514 62.1887 36.7605ZM60.8836 36.4644C60.5547 36.5013 60.1826 36.4927 60.1606 36.9224C60.1433 37.2668 60.4233 37.3605 60.7225 37.3662C61.1435 37.3737 61.529 37.0813 61.483 36.7605C61.4331 36.401 61.0879 36.5486 60.8836 36.4644Z" fill="#818284"/>
<path d="M23.2262 36.3659C23.2156 37.2535 22.4926 37.9245 21.5643 37.9084C20.6658 37.8932 19.9782 37.1996 19.9945 36.3243C20.0108 35.4565 20.7186 34.7762 21.6123 34.7705C22.5204 34.7648 23.2377 35.4736 23.2262 36.3659ZM22.5079 36.3461C22.5031 35.8284 22.11 35.413 21.6171 35.4045C21.1271 35.396 20.7099 35.8161 20.7032 36.3262C20.6965 36.8485 21.1232 37.2904 21.6295 37.2867C22.134 37.2819 22.5127 36.8769 22.5079 36.3461Z" fill="#818284"/>
<path d="M69.1989 36.3517C69.2008 35.4537 69.9105 34.761 70.8176 34.7714C71.7104 34.7818 72.4085 35.4688 72.4095 36.3404C72.4105 37.2318 71.6989 37.9159 70.7774 37.9093C69.8587 37.9017 69.197 37.2497 69.1989 36.3517ZM71.6903 36.365C71.6951 35.8208 71.2933 35.3969 70.7783 35.4045C70.2768 35.4111 69.8942 35.8237 69.8999 36.3508C69.9057 36.8665 70.3056 37.2848 70.7956 37.2866C71.3096 37.2885 71.6845 36.9025 71.6903 36.365Z" fill="#818284"/>
<path d="M32.3097 36.3365C32.3097 35.9476 32.3049 35.5587 32.3126 35.1697C32.3155 35.0363 32.2493 34.8234 32.4986 34.8537C32.6741 34.8754 32.9522 34.6833 33.0107 35.0145C33.0481 35.2303 33.1143 35.13 33.1996 35.0619C33.6053 34.7354 34.0464 34.6777 34.5086 34.9199C34.9823 35.1688 35.0303 35.6135 35.0255 36.0782C35.0207 36.5721 35.0101 37.0661 35.0293 37.5591C35.0399 37.8288 34.8979 37.8421 34.6937 37.8354C34.4923 37.8288 34.2976 37.8648 34.311 37.5525C34.3302 37.12 34.3245 36.6847 34.313 36.2513C34.2986 35.6798 34.1097 35.4423 33.6906 35.4375C33.2562 35.4328 33.0232 35.7148 33.0174 36.2636C33.0126 36.6828 33.0011 37.1021 33.0222 37.5203C33.0357 37.7881 32.9263 37.8411 32.6808 37.8402C32.4267 37.8392 32.2829 37.8051 32.303 37.5023C32.3289 37.1162 32.3097 36.7254 32.3097 36.3365Z" fill="#818284"/>
<path d="M10.3986 35.2247C10.6997 34.8935 11.0229 34.7478 11.4064 34.7818C11.978 34.832 12.352 35.2029 12.3769 35.784C12.4018 36.382 12.3721 36.9829 12.3903 37.5819C12.3999 37.8781 12.2148 37.8308 12.0365 37.8355C11.8284 37.8412 11.6462 37.8563 11.6615 37.5478C11.6836 37.0842 11.6749 36.6186 11.6644 36.1549C11.6539 35.6714 11.439 35.4348 11.0401 35.4405C10.6441 35.4461 10.3948 35.6997 10.3813 36.1454C10.3679 36.6091 10.3602 37.0756 10.3842 37.5384C10.3996 37.8317 10.2509 37.845 10.0275 37.8383C9.81939 37.8327 9.64582 37.8535 9.65253 37.5469C9.67075 36.7681 9.65637 35.9884 9.6602 35.2096C9.66116 35.0459 9.58636 34.8216 9.89898 34.8452C10.1301 34.8623 10.4369 34.7402 10.3986 35.2247Z" fill="#818284"/>
<path d="M51.4718 37.896C51.0834 37.8903 50.7296 37.7777 50.3949 37.5847C50.2213 37.4844 50.2002 37.3793 50.3287 37.2298C50.4284 37.1144 50.4697 36.9137 50.7037 37.0737C50.9434 37.2374 51.2196 37.3254 51.5188 37.314C51.7096 37.3064 51.91 37.2743 51.9417 37.0557C51.9704 36.8607 51.7997 36.7784 51.6348 36.7226C51.3922 36.6393 51.1457 36.5646 50.906 36.4728C50.5243 36.328 50.3182 36.0564 50.3479 35.6438C50.3776 35.2398 50.6145 34.9814 50.9942 34.8622C51.419 34.7288 51.8381 34.7969 52.2361 34.9691C52.3789 35.0306 52.6129 35.059 52.4509 35.3401C52.3262 35.5558 52.2361 35.6779 51.9752 35.5094C51.7834 35.3855 51.5504 35.3552 51.3174 35.3789C51.1668 35.394 51.0498 35.4602 51.0287 35.6154C51.0096 35.7536 51.1055 35.8416 51.2225 35.8889C51.4181 35.9684 51.6204 36.0318 51.8199 36.1028C52.4624 36.3327 52.6906 36.6336 52.6043 37.1361C52.5218 37.614 52.0989 37.8979 51.4718 37.896Z" fill="#818284"/>
<path d="M38.7792 34.8887C39.5185 34.796 39.5185 34.796 39.7381 35.3893C39.9251 35.8927 40.1131 36.3952 40.3288 36.9762C40.5484 36.3952 40.7393 35.8965 40.9262 35.3969C41.1497 34.7998 41.1487 34.7998 41.8718 34.884C41.4815 35.8331 41.1037 36.7756 40.7028 37.7087C40.5983 37.9509 40.0507 37.9528 39.9472 37.7115C39.5482 36.7794 39.1704 35.8379 38.7792 34.8887Z" fill="#818284"/>
<path d="M15.6153 37.2091C15.7447 37.5999 15.6392 37.8355 15.1924 37.8904C14.6036 37.9623 14.1768 37.6964 14.1385 37.1712C14.1078 36.7529 14.1366 36.3319 14.127 35.9117C14.1222 35.712 14.2305 35.4471 13.8412 35.4433C13.7175 35.4414 13.7127 34.8651 13.8316 34.867C14.22 34.8746 14.1414 34.6143 14.1251 34.4109C14.1021 34.1261 14.1864 34.0276 14.4962 34.0229C14.8251 34.0172 14.8922 34.1516 14.8472 34.4166C14.7858 34.7743 14.9354 34.8992 15.2892 34.85C15.4916 34.8216 15.6661 34.8187 15.6671 35.1291C15.6671 35.4253 15.5501 35.5057 15.2902 35.4641C14.9363 35.4073 14.7963 35.5398 14.8443 35.8975C14.8721 36.1038 14.8491 36.3167 14.8491 36.5268C14.8481 37.2715 14.8788 37.299 15.6153 37.2091Z" fill="#818284"/>
<path d="M57.903 37.2431C57.973 37.2478 58.1322 37.0898 58.1523 37.3065C58.1686 37.4815 58.2501 37.6916 57.9998 37.8156C57.3784 38.1222 56.6909 37.7541 56.6468 37.0623C56.6199 36.6299 56.6449 36.1946 56.6362 35.7602C56.6343 35.6561 56.6995 35.4801 56.5154 35.4773C56.2728 35.4745 56.2575 35.3495 56.2555 35.1631C56.2536 34.9606 56.2757 34.8546 56.5346 34.8215C56.735 34.796 56.642 34.5405 56.6305 34.3985C56.6055 34.0938 56.7273 34.0285 57.0169 34.0247C57.3084 34.021 57.4101 34.1165 57.3554 34.3815C57.2691 34.8045 57.4801 34.9048 57.8512 34.8461C58.1015 34.8064 58.1849 34.901 58.1878 35.1603C58.1907 35.4404 58.065 35.5047 57.833 35.4622C57.4158 35.3855 57.3065 35.5681 57.3506 35.9495C57.3823 36.2305 57.3573 36.5173 57.3573 36.8021C57.3573 37.1456 57.5252 37.297 57.903 37.2431Z" fill="#818284"/>
<path d="M64.4597 35.3552C64.7551 35.0855 64.9296 34.8698 65.2163 34.8253C65.3602 34.8026 65.5625 34.7297 65.5424 34.9739C65.527 35.1669 65.7063 35.4376 65.3937 35.5502C64.6477 35.8199 64.4933 36.0309 64.4885 36.821C64.4875 37.015 64.4808 37.21 64.4904 37.403C64.5019 37.6547 64.5201 37.8468 64.1365 37.8487C63.7472 37.8506 63.7769 37.65 63.7789 37.3992C63.7846 36.6829 63.7798 35.9656 63.7817 35.2493C63.7827 35.0515 63.7137 34.8348 64.0713 34.8348C64.3868 34.8348 64.571 34.883 64.4597 35.3552Z" fill="#818284"/>
<path d="M48.0551 35.2985C48.2027 35.1622 48.3044 35.0515 48.4233 34.9635C48.5844 34.8433 48.7973 34.7383 48.9728 34.8215C49.1847 34.9228 49.0428 35.1707 49.0696 35.3524C49.0926 35.5076 48.9919 35.5331 48.8539 35.5644C48.3073 35.6902 48.0905 35.9344 48.0388 36.4927C48.0071 36.8352 48.0023 37.1825 48.0196 37.526C48.033 37.8052 47.9007 37.8459 47.6638 37.8402C47.4471 37.8345 47.2927 37.8402 47.2994 37.5421C47.3195 36.7472 47.3071 35.9524 47.3052 35.1575C47.3052 34.9862 47.286 34.8083 47.5497 34.8471C47.7424 34.8755 48.0503 34.7203 48.0167 35.1253C48.0129 35.166 48.034 35.2105 48.0551 35.2985Z" fill="#818284"/>
<path d="M17.8318 35.326C18.0226 35.1556 18.1262 35.0459 18.2461 34.9598C18.4091 34.8434 18.6191 34.7317 18.7956 34.8254C18.9749 34.921 18.855 35.1538 18.8761 35.325C18.8924 35.4566 18.8454 35.5228 18.6862 35.5635C18.0677 35.7234 17.8644 35.9903 17.8472 36.611C17.8385 36.911 17.8232 37.2129 17.851 37.511C17.8798 37.8289 17.7091 37.8374 17.4665 37.8412C17.2267 37.845 17.1136 37.8043 17.1203 37.528C17.1395 36.7785 17.1241 36.0281 17.1289 35.2777C17.1299 35.0752 17.0282 34.8282 17.4281 34.8339C17.757 34.8377 17.921 34.9049 17.8318 35.326Z" fill="#818284"/>
<path d="M54.8547 36.3678C54.8547 36.7577 54.8336 37.1494 54.8605 37.5374C54.8845 37.8819 54.6697 37.8298 54.4558 37.8412C54.2189 37.8544 54.0981 37.809 54.1048 37.5289C54.123 36.735 54.1269 35.9391 54.1048 35.1452C54.0952 34.8045 54.2947 34.8528 54.5105 34.8414C54.7492 34.8282 54.8758 34.8755 54.8605 35.1537C54.8384 35.5568 54.8547 35.9628 54.8547 36.3678Z" fill="#818284"/>
<path d="M37.3795 36.3574C37.3795 36.7472 37.3613 37.139 37.3853 37.527C37.4025 37.8052 37.2788 37.8553 37.0391 37.8374C36.8415 37.8232 36.6478 37.8733 36.6555 37.5554C36.6737 36.7453 36.6747 35.9353 36.6555 35.1253C36.6478 34.8102 36.8329 34.8518 37.0333 34.8414C37.2596 34.8301 37.4054 34.849 37.3862 35.1423C37.3603 35.5464 37.3795 35.9524 37.3795 36.3574Z" fill="#818284"/>
<path d="M67.6806 36.3583C67.6806 36.7624 67.6653 37.1664 67.6854 37.5696C67.6998 37.8516 67.5329 37.8449 67.3411 37.8336C67.158 37.8232 66.9374 37.9017 66.9432 37.5724C66.9576 36.7501 66.9585 35.9268 66.9422 35.1054C66.9355 34.7714 67.157 34.8556 67.3383 34.8461C67.5234 34.8367 67.7008 34.8121 67.6864 35.1026C67.6653 35.5199 67.6806 35.9401 67.6806 36.3583Z" fill="#818284"/>
<path d="M60.6326 34.4459C60.787 34.2027 60.9414 33.9671 61.0881 33.7267C61.161 33.6065 61.2453 33.5469 61.3844 33.6188C61.5177 33.6879 61.7239 33.7286 61.7651 33.8327C61.8255 33.986 61.5982 34.0475 61.5062 34.1582C61.2895 34.4222 61.0305 34.5736 60.6326 34.4459Z" fill="#818284"/>
<path d="M54.5093 34.4034C54.2178 34.4488 54.0777 34.4015 54.072 34.0712C54.0653 33.6984 54.282 33.7599 54.5064 33.7476C54.749 33.7343 54.8929 33.7599 54.8929 34.0712C54.8919 34.3948 54.7634 34.4668 54.5093 34.4034Z" fill="#818284"/>
<path d="M37.0005 34.4062C36.7387 34.4592 36.6466 34.3712 36.6351 34.0873C36.6217 33.7523 36.7847 33.7476 37.0369 33.7438C37.291 33.7391 37.4023 33.7845 37.408 34.0769C37.4138 34.4052 37.2671 34.4525 37.0005 34.4062Z" fill="#818284"/>
<path d="M67.2972 34.4071C67.0431 34.4544 66.9309 34.3882 66.9203 34.0891C66.9078 33.7428 67.0805 33.7456 67.3317 33.7447C67.5772 33.7437 67.7162 33.7655 67.7201 34.0749C67.7239 34.4156 67.5609 34.4468 67.2972 34.4071Z" fill="#818284"/>
<path d="M24.6582 28.47C24.638 28.4946 24.6016 28.5249 24.5834 28.4937C24.5603 28.4549 24.615 28.4577 24.638 28.4454C24.6438 28.454 24.6505 28.4615 24.6582 28.47Z" fill="white"/>
<path d="M33.5163 46.8133C34.386 47.6394 34.8214 48.6311 34.8214 49.7884C34.8214 50.9495 34.386 51.9412 33.5163 52.7654C32.6465 53.5897 31.6022 54.0022 30.3834 54.0022H28.6046V45.5746H30.3834C31.6013 45.5736 32.6456 45.9872 33.5163 46.8133ZM32.2601 51.5731C32.7817 51.0801 33.0416 50.4849 33.0416 49.7875C33.0416 49.0938 32.7808 48.4986 32.2601 48.0018C31.7384 47.505 31.1132 47.2571 30.3824 47.2571V52.3122C31.1132 52.3131 31.7394 52.0661 32.2601 51.5731Z" fill="black"/>
<path d="M45.7311 45.9046C46.2691 46.126 46.7419 46.426 47.1494 46.8064L45.8942 47.9987C45.3658 47.5038 44.7377 47.2568 44.0108 47.2568C43.2762 47.2568 42.65 47.5048 42.1303 48.0016C41.6105 48.4984 41.3507 49.0936 41.3507 49.7872C41.3507 50.4846 41.6105 51.0798 42.1303 51.5729C42.65 52.0659 43.2762 52.3129 44.0108 52.3129C44.5871 52.3129 45.103 52.1548 45.5585 51.8397C46.014 51.5246 46.3353 51.1205 46.5223 50.6294H44.0117V48.946H46.5223H47.5522H48.3615C48.42 49.2109 48.4497 49.492 48.4497 49.7882C48.4497 50.9493 48.0144 51.941 47.1446 52.7652C46.2749 53.5894 45.2306 54.002 44.0117 54.002C42.7891 54.002 41.7438 53.5903 40.876 52.7652C40.0081 51.941 39.5737 50.9483 39.5737 49.7882C39.5737 48.6309 40.0081 47.6391 40.876 46.813C41.7438 45.9869 42.7891 45.5743 44.0117 45.5743C44.6197 45.5724 45.1932 45.6832 45.7311 45.9046Z" fill="black"/>
<path d="M36.6675 45.5724H38.4464V54H36.6675V45.5724Z" fill="black"/>
<path d="M49.8361 45.5724H51.615V54H49.8361V45.5724Z" fill="black"/>
<path d="M69.1497 45.5724V52.3119H72.6959V54.001H67.3718V45.5733H69.1497V45.5724Z" fill="black"/>
<path d="M59.8646 45.5724L59.1511 47.2558H56.9321V54H55.1533V47.2558H52.9343L53.6477 45.5724H59.8646Z" fill="black"/>
<path d="M62.8226 49.5753L62.8638 49.6614H62.7804L62.8226 49.5753Z" fill="black"/>
<path d="M62.6582 45.9698L62.4654 45.5724L62.2784 45.9651L58.4791 54H58.8531H59.999H60.07H60.373L60.9455 52.7983L60.9733 52.7349H62.5824L61.7769 51.0542L61.7798 51.0514H61.7721L62.4712 49.5771L63.1645 51.0514H63.1616L64.5751 54H64.8657H64.9433H66.0883H66.4633L62.6582 45.9698Z" fill="black"/>
<path d="M26.6996 43.7716V40.928H23.7269V43.7716H20.6324V46.6663H23.7269V49.5099H26.6996V46.6663H29.7942V43.7716H26.6996ZM29.5084 46.2916H26.3189V49.2421H24.1086V46.2916H20.9191V44.1454H24.1086V41.1949H26.3189V44.1454H29.5084V46.2916Z" fill="#E23730"/>
<path d="M23.9019 46.4827H20.9186V44.4756H23.9019V41.7162H25.9694V44.4756H28.9527V46.4827H25.9694V49.2421H23.9019V46.4827Z" fill="#E23730"/>
</g>
<defs>
<clipPath id="clip0_4378_4448">
<rect width="106" height="54" fill="white"/>
</clipPath>
</defs>
</svg>
